# xmcd CD database file
#
# Track frame offsets:
#        150
#        42774
#        81264
#        110291
#        145294
#        174059
#        207816
#        235289
#
# Disc length: 3384 seconds
#
# Revision: 0
# Processed by: cddbd v1.5.2PL0 Copyright (c) Steve Scherf et al.
# Submitted via: CUERipper 2.1.5
#
DISCID=5f0d3608
DTITLE=Robben Ford - City Life
DYEAR=2006
DGENRE=
TTITLE0=City Life
TTITLE1=One Day At A Time
TTITLE2=I Could See Forever
TTITLE3=Wanderlust
TTITLE4=Billie's Bounce
TTITLE5=I Put A Spell On You
TTITLE6=Blues Connotation
TTITLE7=Blues Connotation (reprise)
EXTD=
EXTT0=
EXTT1=
EXTT2=
EXTT3=
EXTT4=
EXTT5=
EXTT6=
EXTT7=
PLAYORDER=
